<svg width="300" height="300" viewBox="0 0 300 300" fill="none" xmlns="http://www.w3.org/2000/svg">
    <circle cx="150" cy="150" r="150" fill="#718096" fill-opacity="0.05"/>
    <circle cx="150" cy="150" r="120" fill="#718096" fill-opacity="0.06"/>
    <path d="M50.216 138.663C50.9478 138.663 51.7609 138.724 52.6553 138.846C53.57 138.968 54.4644 139.172 55.3385 139.456C56.2329 139.741 57.0562 140.117 57.8083 140.584C58.5604 141.032 59.1397 141.601 59.5463 142.292C60.0544 142.658 60.5118 143.196 60.9183 143.908C61.2842 144.68 61.4672 145.412 61.4672 146.103C61.4672 146.876 61.3249 147.587 61.0403 148.238C60.7761 148.888 60.4305 149.478 60.0036 150.006C59.5767 150.535 59.1092 151.002 58.601 151.409C58.1132 151.815 57.6355 152.161 57.168 152.445C56.7004 152.71 56.2939 152.913 55.9483 153.055C55.6028 153.197 55.3792 153.269 55.2775 153.269C55.1759 153.269 55.0031 153.218 54.7592 153.116C54.5356 153.015 54.312 152.893 54.0884 152.75C53.8241 152.608 53.5395 152.435 53.2346 152.232C53.2346 152.212 53.4277 152.09 53.814 151.866C54.2002 151.642 54.627 151.297 55.0946 150.829C55.5824 150.362 56.0195 149.752 56.4057 149C56.7919 148.227 56.985 147.282 56.985 146.164C56.8021 145.798 56.548 145.453 56.2227 145.128C55.8975 144.782 55.4808 144.487 54.9726 144.243C54.4644 143.979 53.8444 143.766 53.1127 143.603C52.4012 143.44 51.5475 143.359 50.5514 143.359C50.2059 143.359 49.6773 143.41 48.9659 143.512C48.2544 143.613 47.4312 143.796 46.4961 144.06C45.5611 144.325 44.5447 144.691 43.447 145.158C42.3697 145.605 41.2822 146.205 40.1845 146.957C39.1071 147.689 38.0603 148.583 37.0439 149.64C36.0479 150.677 35.1637 151.907 34.3912 153.33C33.6188 154.732 32.9988 156.348 32.5313 158.178C32.0841 160.007 31.8605 162.081 31.8605 164.398C31.8605 165.658 31.9621 166.807 32.1654 167.843C32.3686 168.86 32.6329 169.785 32.9581 170.618C33.3037 171.431 33.7001 172.163 34.1473 172.813C34.5945 173.443 35.062 174.013 35.5499 174.521C35.8548 174.683 36.2003 174.897 36.5866 175.161C36.9728 175.405 37.4911 175.649 38.1416 175.893C38.8124 176.117 39.6661 176.32 40.7028 176.503C41.7395 176.665 43.0608 176.747 44.6667 176.747C46.0489 176.747 47.36 176.584 48.6 176.259C49.8603 175.934 51.0291 175.517 52.1065 175.009C53.2041 174.501 54.2103 173.942 55.1251 173.332C56.0398 172.702 56.8427 172.092 57.5338 171.502C58.2453 170.892 58.8348 170.344 59.3023 169.856C59.7699 169.348 60.0951 168.961 60.278 168.697C60.6643 168.169 60.9387 167.833 61.1013 167.691C61.2639 167.528 61.4062 167.447 61.5282 167.447C61.6298 167.447 61.7213 167.457 61.8026 167.477C61.9042 167.498 62.0059 167.508 62.1075 167.508C62.2904 167.508 62.4022 167.416 62.4429 167.233C62.4835 167.051 62.5344 166.959 62.5953 166.959C62.636 166.959 62.6665 167.04 62.6868 167.203C62.7071 167.366 62.7173 167.559 62.7173 167.782C62.7173 167.904 62.7071 168.026 62.6868 168.148C62.6665 168.25 62.6563 168.351 62.6563 168.453C62.636 168.575 62.5445 168.992 62.3819 169.703C62.2396 170.394 61.955 171.228 61.5282 172.204C61.1216 173.159 60.5423 174.185 59.7902 175.283C59.0381 176.381 58.0624 177.397 56.863 178.332C55.6841 179.267 54.2408 180.04 52.5333 180.65C50.8258 181.259 48.8134 181.564 46.4961 181.564C45.0935 181.564 43.7926 181.442 42.5933 181.198C41.4143 180.934 40.3471 180.619 39.3917 180.253C38.4567 179.867 37.6233 179.45 36.8915 179.003C36.1597 178.535 35.5499 178.098 35.062 177.692C34.0253 177.102 33.0293 176.35 32.0739 175.436C31.1185 174.521 30.2749 173.423 29.5432 172.143C28.8114 170.862 28.2219 169.378 27.7747 167.691C27.3478 165.983 27.1344 164.052 27.1344 161.898C27.1344 159.743 27.4189 157.669 27.9881 155.677C28.5573 153.685 29.35 151.825 30.3664 150.098C31.4031 148.37 32.6329 146.805 34.0558 145.402C35.4787 143.999 37.0439 142.8 38.7514 141.804C40.4589 140.808 42.2782 140.036 44.2093 139.487C46.1607 138.938 48.163 138.663 50.216 138.663ZM87.5674 168.453C87.5674 170.587 87.2524 172.508 86.6222 174.216C86.0124 175.923 85.1688 177.377 84.0915 178.576C83.0345 179.775 81.8046 180.7 80.4021 181.351C78.9995 182.001 77.5156 182.327 75.9504 182.327C75.2999 182.327 74.5885 182.245 73.816 182.083C73.0436 181.94 72.2711 181.696 71.4987 181.351C70.7263 181.005 69.9742 180.548 69.2424 179.979C68.5106 179.41 67.8601 178.708 67.291 177.875C66.7218 177.041 66.2644 176.066 65.9189 174.948C65.5936 173.83 65.4412 172.539 65.4615 171.075C65.4615 169.409 65.6648 167.894 66.0713 166.532C66.4779 165.15 66.9962 163.92 67.6264 162.843C68.2768 161.745 69.0086 160.8 69.8217 160.007C70.6348 159.214 71.4479 158.554 72.261 158.025C73.0741 157.476 73.8567 157.07 74.6088 156.806C75.3609 156.541 76.0114 156.389 76.5602 156.348C76.8448 156.328 76.9668 156.358 76.9261 156.44C76.9058 156.521 76.8346 156.612 76.7127 156.714C76.5907 156.816 76.4789 156.917 76.3773 157.019C76.296 157.121 76.3366 157.182 76.4992 157.202C76.6415 157.243 76.7533 157.283 76.8346 157.324C76.9363 157.365 77.0379 157.415 77.1395 157.476L77.3835 157.202C77.5258 157.1 77.6579 157.05 77.7798 157.05C77.9221 157.05 78.0441 157.07 78.1457 157.11C78.2474 157.131 78.3287 157.141 78.3897 157.141C78.4506 157.141 78.4913 157.08 78.5116 156.958C78.5523 156.734 78.6234 156.612 78.7251 156.592C78.847 156.551 79.1113 156.531 79.5178 156.531C79.7618 156.531 80.1276 156.602 80.6155 156.745C81.1237 156.887 81.6725 157.131 82.262 157.476C82.8718 157.822 83.4817 158.289 84.0915 158.879C84.7216 159.448 85.2908 160.18 85.799 161.074C86.3275 161.948 86.7543 162.995 87.0796 164.215C87.4048 165.435 87.5674 166.847 87.5674 168.453ZM76.5602 159.519C75.8487 159.946 75.1475 160.525 74.4563 161.257C73.7652 161.989 73.1351 162.833 72.5659 163.788C72.0171 164.743 71.5699 165.811 71.2243 166.99C70.8787 168.169 70.7059 169.409 70.7059 170.709C70.7059 172.112 70.8279 173.383 71.0718 174.521C71.3361 175.659 71.7121 176.635 72.2 177.448C72.6879 178.241 73.2773 178.861 73.9685 179.308C74.6799 179.735 75.4829 179.948 76.3773 179.948C77.17 179.948 77.9526 179.725 78.7251 179.277C79.5178 178.83 80.2191 178.159 80.8289 177.265C81.4388 176.371 81.9266 175.263 82.2925 173.942C82.6787 172.62 82.8718 171.086 82.8718 169.337C82.8718 167.569 82.6381 166.085 82.1705 164.886C81.703 163.686 81.1745 162.721 80.585 161.989C80.0158 161.237 79.467 160.708 78.9385 160.404C78.41 160.078 78.0848 159.916 77.9628 159.916C77.6782 159.916 77.4546 159.916 77.292 159.916C77.1497 159.916 76.9058 159.784 76.5602 159.519ZM110.619 180.009C110.619 180.253 110.527 180.528 110.344 180.832C110.182 181.117 109.938 181.259 109.612 181.259C109.429 181.259 109.287 181.209 109.186 181.107C109.084 181.005 108.982 180.954 108.881 180.954C108.738 180.954 108.596 181.005 108.454 181.107C108.332 181.209 108.118 181.259 107.813 181.259C107.407 181.259 107.051 181.117 106.746 180.832C106.462 180.528 106.228 180.151 106.045 179.704C105.862 179.237 105.72 178.739 105.618 178.21C105.537 177.661 105.496 177.153 105.496 176.686C105.496 175.771 105.527 174.734 105.588 173.576C105.669 172.397 105.75 171.197 105.832 169.978C105.933 168.738 106.014 167.508 106.075 166.288C106.157 165.069 106.197 163.94 106.197 162.904C106.197 161.522 106.106 160.444 105.923 159.672C105.74 158.899 105.415 158.513 104.947 158.513C104.5 158.574 104.043 158.96 103.575 159.672C103.108 160.383 102.63 161.298 102.142 162.416C101.654 163.514 101.177 164.764 100.709 166.166C100.242 167.549 99.7841 168.971 99.3369 170.435C98.9101 171.878 98.5035 173.291 98.1173 174.673C97.7311 176.035 97.3855 177.255 97.0806 178.332C96.7757 179.41 96.5115 180.284 96.2879 180.954C96.0643 181.605 95.9118 181.93 95.8305 181.93C95.6679 181.93 95.5459 181.889 95.4646 181.808C95.3833 181.747 95.302 181.676 95.2207 181.595C95.1597 181.513 95.0784 181.432 94.9767 181.351C94.8751 181.29 94.7226 181.259 94.5194 181.259C94.3364 181.259 94.2145 181.28 94.1535 181.32C94.0925 181.361 94.0214 181.412 93.94 181.473C93.8587 181.534 93.7571 181.585 93.6351 181.625C93.5132 181.666 93.2997 181.686 92.9948 181.686C92.6289 181.686 92.263 181.595 91.8972 181.412C91.5516 181.229 91.3788 180.944 91.3788 180.558C91.3788 180.314 91.4195 179.816 91.5008 179.064C91.5821 178.292 91.6736 177.356 91.7752 176.259C91.8972 175.141 92.0191 173.901 92.1411 172.539C92.2834 171.157 92.4053 169.734 92.507 168.27C92.6289 166.807 92.7306 165.343 92.8119 163.879C92.8932 162.416 92.9338 161.023 92.9338 159.702C92.9338 159.052 92.9237 158.452 92.9034 157.903C92.883 157.334 92.8729 156.795 92.8729 156.287C92.8729 156.165 92.9338 156.104 93.0558 156.104C93.2997 156.104 93.4827 156.155 93.6046 156.257C93.7469 156.338 93.8486 156.43 93.9096 156.531C93.9705 156.633 94.001 156.734 94.001 156.836C94.0214 156.917 94.0417 156.958 94.062 156.958C94.123 156.958 94.1941 156.928 94.2754 156.867C94.3568 156.785 94.4381 156.704 94.5194 156.623C94.621 156.541 94.7125 156.47 94.7938 156.409C94.8751 156.328 94.9462 156.287 95.0072 156.287H95.3121C95.6171 156.287 95.8305 156.247 95.9525 156.165C96.0744 156.064 96.1557 155.962 96.1964 155.86C96.2574 155.738 96.298 155.637 96.3183 155.555C96.3387 155.454 96.3997 155.403 96.5013 155.403C96.5623 155.403 96.6436 155.454 96.7452 155.555C96.8672 155.637 96.979 155.789 97.0806 156.013C97.2026 156.216 97.3042 156.491 97.3855 156.836C97.4668 157.182 97.5075 157.598 97.5075 158.086C97.5075 158.737 97.477 159.56 97.416 160.556C97.3754 161.552 97.3144 162.619 97.2331 163.758C97.1721 164.876 97.1111 166.014 97.0501 167.173C96.9891 168.311 96.9485 169.348 96.9282 170.283C97.1518 169.409 97.416 168.443 97.7209 167.386C98.0462 166.309 98.4121 165.221 98.8186 164.123C99.2455 163.026 99.7028 161.959 100.191 160.922C100.679 159.865 101.207 158.93 101.776 158.117C102.345 157.304 102.945 156.653 103.575 156.165C104.205 155.657 104.866 155.403 105.557 155.403C106.655 155.403 107.549 155.606 108.24 156.013C108.952 156.419 109.511 156.978 109.917 157.69C110.324 158.401 110.598 159.235 110.741 160.19C110.903 161.145 110.984 162.172 110.984 163.27C110.984 164.205 110.944 165.191 110.863 166.227C110.781 167.244 110.69 168.27 110.588 169.307C110.507 170.323 110.425 171.329 110.344 172.325C110.283 173.322 110.253 174.257 110.253 175.131C110.253 176.208 110.314 177.184 110.436 178.058C110.558 178.912 110.619 179.562 110.619 180.009ZM127.084 179.948C128.303 179.948 129.513 180.06 130.712 180.284C131.932 180.507 133.029 180.883 134.005 181.412C134.981 181.94 135.763 182.631 136.353 183.485C136.963 184.359 137.268 185.447 137.268 186.748C137.268 187.703 137.044 188.669 136.597 189.644C136.15 190.62 135.53 191.565 134.737 192.48C133.944 193.395 133.009 194.259 131.932 195.072C130.875 195.885 129.726 196.586 128.486 197.176C127.246 197.785 125.956 198.263 124.614 198.609C123.272 198.954 121.931 199.127 120.589 199.127C119.491 199.127 118.455 199.005 117.479 198.761C116.524 198.538 115.68 198.192 114.948 197.724C114.237 197.257 113.668 196.667 113.241 195.956C112.814 195.265 112.601 194.442 112.601 193.486C112.601 192.551 112.783 191.667 113.149 190.833C113.515 190.02 113.993 189.268 114.582 188.577C115.192 187.886 115.883 187.256 116.656 186.687C117.428 186.138 118.221 185.67 119.034 185.284C119.868 184.918 120.681 184.634 121.473 184.43C122.266 184.227 122.988 184.125 123.638 184.125C123.984 184.166 124.218 184.207 124.34 184.247C124.461 184.308 124.522 184.369 124.522 184.43C124.522 184.491 124.492 184.563 124.431 184.644C124.37 184.745 124.34 184.827 124.34 184.888C124.38 185.01 124.421 185.152 124.461 185.315C124.502 185.477 124.522 185.64 124.522 185.802C124.522 186.006 124.482 186.179 124.401 186.321C124.34 186.483 124.197 186.585 123.974 186.626C123.12 186.829 122.175 187.175 121.138 187.662C120.122 188.15 119.156 188.719 118.241 189.37C117.347 190.041 116.595 190.752 115.985 191.504C115.375 192.277 115.06 193.049 115.04 193.822C115.04 194.187 115.213 194.452 115.558 194.614C115.904 194.777 116.392 194.858 117.022 194.858C117.794 194.858 118.719 194.746 119.796 194.523C120.874 194.299 121.992 193.974 123.15 193.547C124.309 193.141 125.447 192.632 126.565 192.023C127.704 191.433 128.72 190.762 129.614 190.01C130.529 189.258 131.261 188.445 131.81 187.571C132.359 186.697 132.633 185.762 132.633 184.766C132.633 184.278 132.531 183.892 132.328 183.607C132.145 183.343 131.922 183.14 131.657 182.997C131.413 182.855 131.149 182.764 130.865 182.723C130.6 182.703 130.377 182.692 130.194 182.692C128.751 182.692 127.277 182.774 125.773 182.936C124.268 183.119 122.896 183.302 121.656 183.485C120.437 183.688 119.43 183.871 118.638 184.034C117.845 184.217 117.428 184.308 117.388 184.308C116.94 184.308 116.524 184.217 116.137 184.034C115.772 183.851 115.457 183.617 115.192 183.333C114.928 183.048 114.715 182.713 114.552 182.327C114.41 181.961 114.339 181.585 114.339 181.198C114.339 180.893 114.521 180.456 114.887 179.887C115.253 179.298 115.731 178.668 116.32 177.997C116.91 177.326 117.581 176.665 118.333 176.015C119.105 175.364 119.878 174.826 120.65 174.399C119.959 174.033 119.339 173.586 118.79 173.057C118.241 172.529 117.774 171.96 117.388 171.35C117.022 170.74 116.737 170.1 116.534 169.429C116.331 168.738 116.229 168.036 116.229 167.325C116.229 165.943 116.422 164.723 116.808 163.666C117.194 162.589 117.703 161.654 118.333 160.861C118.963 160.068 119.664 159.407 120.437 158.879C121.229 158.35 122.012 157.924 122.784 157.598C123.557 157.273 124.289 157.05 124.98 156.928C125.671 156.785 126.25 156.714 126.718 156.714C126.941 156.714 127.124 156.724 127.267 156.745C127.429 156.765 127.572 156.795 127.694 156.836C128.202 156.023 128.781 155.159 129.432 154.244C130.102 153.309 130.783 152.395 131.474 151.5C132.186 150.585 132.887 149.722 133.578 148.908C134.29 148.075 134.93 147.343 135.499 146.713C136.089 146.063 136.587 145.554 136.993 145.189C137.4 144.802 137.674 144.609 137.817 144.609C137.999 144.609 138.223 144.731 138.487 144.975C138.752 145.199 139.006 145.463 139.25 145.768C139.494 146.052 139.697 146.337 139.859 146.622C140.042 146.886 140.134 147.069 140.134 147.17C140.134 147.272 140.093 147.364 140.012 147.445C139.931 147.526 139.89 147.597 139.89 147.658C139.89 147.76 139.941 147.851 140.042 147.933C140.164 147.994 140.337 148.075 140.561 148.177C140.601 148.217 140.632 148.238 140.652 148.238C140.673 148.238 140.683 148.258 140.683 148.299C140.683 148.38 140.551 148.522 140.286 148.725C140.022 148.908 139.595 149.244 139.006 149.732C138.416 150.199 137.654 150.86 136.719 151.714C135.784 152.567 134.635 153.696 133.273 155.098C132.948 155.403 132.613 155.779 132.267 156.226C131.922 156.673 131.546 157.151 131.139 157.659C131.668 157.944 132.216 158.32 132.786 158.787C133.355 159.255 133.863 159.804 134.31 160.434C134.778 161.044 135.154 161.745 135.438 162.538C135.743 163.331 135.896 164.184 135.896 165.099C135.896 167.051 135.57 168.687 134.92 170.008C134.269 171.329 133.426 172.397 132.389 173.21C131.352 174.002 130.194 174.572 128.913 174.917C127.633 175.263 126.372 175.436 125.132 175.436C124.827 175.436 124.533 175.425 124.248 175.405C123.984 175.385 123.72 175.354 123.455 175.314C122.988 175.619 122.459 175.995 121.87 176.442C121.28 176.889 120.701 177.377 120.132 177.905C119.563 178.434 119.034 178.973 118.546 179.521C118.079 180.07 117.723 180.589 117.479 181.076C118.292 181.056 119.075 180.995 119.827 180.893C120.579 180.771 121.331 180.639 122.083 180.497C122.856 180.355 123.648 180.233 124.461 180.131C125.275 180.009 126.149 179.948 127.084 179.948ZM126.139 160.464C126.139 160.058 126.372 159.367 126.84 158.391C125.884 158.696 125.031 159.153 124.279 159.763C123.526 160.373 122.886 161.064 122.358 161.837C121.829 162.609 121.423 163.442 121.138 164.337C120.853 165.211 120.711 166.085 120.711 166.959C120.711 167.589 120.782 168.199 120.925 168.789C121.087 169.358 121.331 169.876 121.656 170.344C121.982 170.791 122.398 171.157 122.906 171.441C123.435 171.705 124.075 171.838 124.827 171.838C125.64 171.838 126.362 171.695 126.992 171.411C127.643 171.106 128.212 170.72 128.7 170.252C129.188 169.764 129.594 169.226 129.919 168.636C130.265 168.047 130.539 167.467 130.743 166.898C130.966 166.309 131.129 165.76 131.23 165.252C131.332 164.743 131.383 164.337 131.383 164.032C131.383 162.812 131.18 161.867 130.773 161.196C130.387 160.505 129.93 159.987 129.401 159.641C129.116 159.987 128.822 160.322 128.517 160.647C128.212 160.952 127.897 161.267 127.572 161.593C127.531 161.633 127.47 161.654 127.389 161.654C127.328 161.654 127.277 161.623 127.236 161.562C127.196 161.501 127.124 161.471 127.023 161.471C126.962 161.471 126.901 161.501 126.84 161.562C126.779 161.623 126.698 161.654 126.596 161.654C126.454 161.654 126.342 161.572 126.26 161.41C126.179 161.247 126.139 160.932 126.139 160.464ZM155.471 159.397C155.45 159.987 155.389 160.576 155.288 161.166C155.207 161.735 155.085 162.284 154.922 162.812C154.759 163.32 154.556 163.778 154.312 164.184C154.089 164.591 153.834 164.916 153.55 165.16C153.306 165.363 153.113 165.465 152.971 165.465C152.828 165.465 152.706 165.424 152.605 165.343C152.523 165.262 152.452 165.17 152.391 165.069C152.33 164.967 152.249 164.906 152.147 164.886C152.066 164.865 151.954 164.876 151.812 164.916C151.69 164.937 151.558 164.937 151.416 164.916C151.294 164.896 151.172 164.825 151.05 164.703C150.948 164.56 150.877 164.317 150.836 163.971C150.796 163.585 150.806 163.087 150.867 162.477C150.948 161.847 150.989 161.237 150.989 160.647C150.989 160.119 150.928 159.682 150.806 159.336C150.704 158.97 150.511 158.787 150.226 158.787C150.084 158.787 149.83 158.899 149.464 159.123C149.119 159.326 148.732 159.773 148.305 160.464C147.879 161.156 147.452 162.162 147.025 163.483C146.598 164.784 146.252 166.522 145.988 168.697C145.988 171.502 146.008 173.759 146.049 175.466C146.09 177.174 146.11 178.505 146.11 179.46C146.11 180.273 146.09 180.853 146.049 181.198C146.008 181.544 145.907 181.768 145.744 181.869C145.643 181.93 145.439 182.001 145.134 182.083C144.85 182.184 144.535 182.276 144.189 182.357C143.864 182.438 143.549 182.509 143.244 182.57C142.939 182.631 142.746 182.652 142.665 182.631C142.604 182.611 142.492 182.54 142.329 182.418C142.167 182.316 141.994 182.184 141.811 182.022C141.648 181.859 141.496 181.686 141.353 181.503C141.211 181.341 141.13 181.198 141.11 181.076C141.069 180.873 141.049 180.416 141.049 179.704C141.069 178.973 141.079 178.098 141.079 177.082C141.099 176.066 141.12 174.958 141.14 173.759C141.16 172.539 141.171 171.329 141.171 170.13C141.171 169.358 141.191 168.504 141.232 167.569C141.293 166.614 141.353 165.648 141.414 164.672C141.496 163.697 141.577 162.741 141.658 161.806C141.74 160.871 141.811 160.038 141.872 159.306C141.953 158.554 142.014 157.934 142.055 157.446C142.116 156.938 142.156 156.633 142.177 156.531C142.197 156.369 142.268 156.308 142.39 156.348C142.532 156.389 142.675 156.46 142.817 156.562C142.98 156.663 143.122 156.755 143.244 156.836C143.366 156.917 143.447 156.917 143.488 156.836C143.529 156.653 143.681 156.633 143.945 156.775C144.209 156.897 144.453 157.039 144.677 157.202C144.758 157.304 144.85 157.395 144.951 157.476C145.073 157.537 145.185 157.629 145.287 157.751C145.388 157.852 145.47 157.995 145.531 158.178C145.612 158.361 145.653 158.605 145.653 158.909C145.653 159.194 145.673 159.621 145.714 160.19C145.754 160.759 145.805 161.43 145.866 162.202C146.09 161.471 146.354 160.698 146.659 159.885C146.984 159.072 147.37 158.33 147.818 157.659C148.265 156.968 148.793 156.399 149.403 155.952C150.013 155.505 150.745 155.281 151.598 155.281C152.066 155.281 152.534 155.373 153.001 155.555C153.469 155.738 153.885 156.013 154.251 156.379C154.637 156.724 154.942 157.151 155.166 157.659C155.389 158.168 155.491 158.747 155.471 159.397ZM175.991 163.453C176.012 164.164 175.951 165.038 175.808 166.075C175.666 167.091 175.503 168.189 175.32 169.368C175.137 170.527 174.965 171.716 174.802 172.935C174.639 174.155 174.558 175.303 174.558 176.381C174.558 177.092 174.609 177.773 174.711 178.424C174.812 179.054 174.985 179.603 175.229 180.07C175.371 180.334 175.442 180.568 175.442 180.771C175.463 180.975 175.453 181.158 175.412 181.32C175.371 181.463 175.331 181.585 175.29 181.686C175.249 181.808 175.249 181.92 175.29 182.022C175.331 182.123 175.32 182.235 175.259 182.357C175.198 182.499 175.107 182.621 174.985 182.723C174.863 182.845 174.721 182.926 174.558 182.967C174.416 183.028 174.284 183.018 174.162 182.936C173.938 182.794 173.755 182.713 173.613 182.692C173.491 182.672 173.379 182.672 173.278 182.692C173.196 182.733 173.115 182.774 173.034 182.814C172.973 182.855 172.891 182.855 172.79 182.814C172.444 182.631 172.068 182.418 171.661 182.174C171.255 181.93 170.991 181.666 170.869 181.381C170.787 181.259 170.706 181.056 170.625 180.771C170.564 180.487 170.503 180.151 170.442 179.765C170.401 179.379 170.361 178.962 170.32 178.515C170.279 178.068 170.249 177.631 170.228 177.204C169.558 178.464 168.836 179.511 168.064 180.345C167.311 181.178 166.549 181.839 165.777 182.327C165.025 182.835 164.273 183.19 163.52 183.394C162.789 183.597 162.118 183.699 161.508 183.699C160.878 183.699 160.319 183.617 159.831 183.455C159.363 183.292 158.998 183.099 158.733 182.875C157.737 181.879 157.026 181.076 156.599 180.467C156.192 179.836 156.009 179.328 156.05 178.942C156.152 177.641 156.467 176.442 156.995 175.344C157.524 174.246 158.184 173.24 158.977 172.325C159.77 171.39 160.654 170.557 161.63 169.825C162.626 169.073 163.632 168.412 164.649 167.843C165.685 167.254 166.702 166.766 167.698 166.38C168.694 165.973 169.598 165.648 170.411 165.404C170.371 164.306 170.32 163.351 170.259 162.538C170.218 161.704 170.147 161.095 170.045 160.708C169.741 159.448 169.273 158.513 168.643 157.903C168.013 157.273 167.25 156.958 166.356 156.958C165.787 156.958 165.208 157.171 164.618 157.598C164.049 158.025 163.531 158.605 163.063 159.336C162.596 160.068 162.209 160.912 161.904 161.867C161.62 162.822 161.467 163.829 161.447 164.886C161.447 165.15 161.457 165.404 161.478 165.648C161.498 165.892 161.528 166.146 161.569 166.41C161.589 166.553 161.538 166.654 161.417 166.715C161.315 166.776 161.183 166.827 161.02 166.868C160.858 166.888 160.685 166.908 160.502 166.929C160.319 166.949 160.166 166.979 160.044 167.02C159.943 167.061 159.861 167.091 159.801 167.112C159.74 167.112 159.679 167.101 159.618 167.081C159.557 167.04 159.475 166.979 159.374 166.898C159.292 166.817 159.17 166.715 159.008 166.593C158.845 166.471 158.672 166.37 158.489 166.288C158.327 166.207 158.174 166.136 158.032 166.075C157.91 166.014 157.798 165.963 157.697 165.922C157.615 165.861 157.575 165.79 157.575 165.709C157.575 164.449 157.849 163.148 158.398 161.806C158.967 160.464 159.719 159.245 160.654 158.147C161.61 157.029 162.707 156.114 163.947 155.403C165.208 154.692 166.539 154.336 167.942 154.336C169.08 154.336 170.066 154.509 170.899 154.854C171.733 155.2 172.444 155.647 173.034 156.196C173.623 156.745 174.101 157.354 174.467 158.025C174.853 158.696 175.148 159.377 175.351 160.068C175.575 160.739 175.727 161.379 175.808 161.989C175.91 162.579 175.971 163.066 175.991 163.453ZM170.472 168.88C169.863 169.104 169.192 169.398 168.46 169.764C167.728 170.13 166.986 170.567 166.234 171.075C165.482 171.563 164.73 172.132 163.978 172.783C163.226 173.433 162.524 174.155 161.874 174.948C161.101 175.862 160.542 176.676 160.197 177.387C159.851 178.098 159.638 178.708 159.557 179.216C159.475 179.704 159.496 180.091 159.618 180.375C159.74 180.66 159.882 180.832 160.044 180.893C160.675 181.137 161.325 181.168 161.996 180.985C162.687 180.782 163.368 180.436 164.039 179.948C164.73 179.44 165.391 178.84 166.021 178.149C166.671 177.438 167.281 176.716 167.85 175.984C168.419 175.232 168.927 174.501 169.375 173.789C169.822 173.057 170.188 172.427 170.472 171.899V168.88ZM189.407 145.463C189.407 145.585 189.387 145.91 189.346 146.439C189.306 146.947 189.245 147.628 189.163 148.482C189.102 149.335 189.021 150.331 188.919 151.47C188.818 152.588 188.716 153.797 188.614 155.098C189.895 154.935 191.105 154.814 192.243 154.732C193.402 154.631 194.377 154.58 195.17 154.58C195.434 154.58 195.668 154.631 195.871 154.732C196.075 154.834 196.237 154.956 196.359 155.098C196.501 155.22 196.613 155.362 196.695 155.525C196.776 155.667 196.827 155.789 196.847 155.891C196.847 155.992 196.857 156.094 196.878 156.196C196.898 156.277 196.908 156.369 196.908 156.47C196.908 156.877 196.725 157.283 196.359 157.69C196.014 158.096 195.485 158.35 194.774 158.452L188.279 159.153C188.177 160.617 188.086 162.121 188.005 163.666C187.923 165.211 187.842 166.756 187.761 168.301C187.7 169.825 187.649 171.329 187.608 172.813C187.568 174.297 187.547 175.7 187.547 177.021C187.547 177.875 187.568 178.566 187.608 179.094C187.649 179.623 187.669 179.969 187.669 180.131C187.669 180.477 187.598 180.822 187.456 181.168C187.334 181.493 187.181 181.788 186.998 182.052C186.836 182.337 186.653 182.56 186.45 182.723C186.267 182.906 186.114 182.997 185.992 182.997C185.26 182.997 184.681 182.764 184.254 182.296C183.827 181.849 183.502 181.239 183.279 180.467C183.075 179.694 182.943 178.81 182.882 177.814C182.821 176.818 182.791 175.781 182.791 174.704C182.791 172.163 182.862 169.622 183.004 167.081C183.146 164.52 183.35 162.06 183.614 159.702L179.803 160.16C179.742 160.16 179.681 160.17 179.62 160.19C179.559 160.21 179.488 160.221 179.406 160.221C179.02 160.221 178.715 160.129 178.491 159.946C178.248 159.763 178.065 159.55 177.943 159.306C177.821 159.062 177.75 158.818 177.729 158.574C177.689 158.31 177.668 158.107 177.668 157.964C177.668 157.68 177.709 157.415 177.79 157.171C177.871 156.928 178.024 156.775 178.248 156.714C178.674 156.551 179.416 156.379 180.473 156.196C181.551 155.992 182.76 155.789 184.102 155.586C184.325 153.939 184.549 152.435 184.773 151.073C185.017 149.691 185.25 148.502 185.474 147.506C185.698 146.489 185.901 145.707 186.084 145.158C186.287 144.589 186.46 144.304 186.602 144.304C186.643 144.304 186.694 144.314 186.755 144.335C186.816 144.355 186.866 144.365 186.907 144.365C187.029 144.365 187.12 144.304 187.181 144.182C187.263 144.04 187.405 143.969 187.608 143.969C187.791 143.969 187.984 144.03 188.188 144.152C188.411 144.253 188.604 144.386 188.767 144.548C188.95 144.711 189.102 144.884 189.224 145.067C189.346 145.229 189.407 145.361 189.407 145.463ZM215.02 157.354C215.081 157.476 215.111 157.598 215.111 157.72C215.131 157.842 215.142 157.985 215.142 158.147C215.142 158.798 214.796 159.479 214.105 160.19C213.434 160.902 212.367 161.552 210.903 162.142C210.598 162.263 210.324 162.324 210.08 162.324C209.775 162.324 209.511 162.243 209.287 162.081C209.084 161.898 208.982 161.715 208.982 161.532C208.982 161.41 209.054 161.267 209.196 161.105C209.358 160.942 209.521 160.78 209.684 160.617C209.867 160.454 210.029 160.302 210.172 160.16C210.334 160.017 210.416 159.905 210.416 159.824C210.416 159.662 210.283 159.58 210.019 159.58C209.613 159.58 209.094 159.702 208.464 159.946C207.834 160.17 207.163 160.475 206.452 160.861C205.761 161.227 205.049 161.633 204.317 162.081C203.606 162.507 202.966 162.934 202.396 163.361C201.827 163.768 201.36 164.134 200.994 164.459C200.648 164.784 200.475 165.018 200.475 165.16C200.475 165.241 200.557 165.282 200.719 165.282H201.604C202.152 165.282 202.854 165.313 203.707 165.374C204.582 165.435 205.496 165.556 206.452 165.739C207.407 165.902 208.362 166.146 209.318 166.471C210.294 166.776 211.157 167.193 211.91 167.721C212.682 168.25 213.312 168.89 213.8 169.642C214.288 170.394 214.532 171.289 214.532 172.325C214.532 172.854 214.44 173.423 214.257 174.033C214.095 174.622 213.79 175.232 213.343 175.862C212.916 176.472 212.326 177.102 211.574 177.753C210.822 178.383 209.867 179.013 208.708 179.643C206.96 180.578 205.324 181.269 203.799 181.717C202.295 182.164 200.933 182.387 199.713 182.387C198.128 182.387 196.878 182.032 195.963 181.32C195.048 180.609 194.591 179.592 194.591 178.271C194.591 177.296 194.774 176.462 195.14 175.771C195.526 175.08 195.973 174.511 196.481 174.063C196.989 173.596 197.498 173.261 198.006 173.057C198.514 172.834 198.9 172.712 199.164 172.691C199.286 172.691 199.388 172.681 199.469 172.661C199.571 172.641 199.673 172.63 199.774 172.63C199.957 172.63 200.049 172.742 200.049 172.966V173.271C200.049 173.393 200.079 173.504 200.14 173.606C200.201 173.687 200.232 173.779 200.232 173.881C200.232 174.002 200.079 174.185 199.774 174.429C199.49 174.673 199.175 174.958 198.829 175.283C198.483 175.608 198.158 175.954 197.853 176.32C197.569 176.686 197.426 177.041 197.426 177.387C197.426 177.794 197.752 177.997 198.402 177.997C199.215 177.997 200.069 177.844 200.963 177.539C201.878 177.214 202.762 176.808 203.616 176.32C204.49 175.832 205.313 175.283 206.086 174.673C206.879 174.043 207.57 173.433 208.159 172.844C208.749 172.254 209.216 171.705 209.562 171.197C209.907 170.669 210.08 170.252 210.08 169.947C210.08 169.581 209.867 169.287 209.44 169.063C209.033 168.839 208.464 168.656 207.732 168.514C207.021 168.372 206.187 168.28 205.232 168.24C204.277 168.179 203.27 168.148 202.213 168.148C201.116 168.148 200.201 168.199 199.469 168.301C198.758 168.402 198.321 168.453 198.158 168.453C198.036 168.453 197.833 168.443 197.548 168.423C197.284 168.382 197.01 168.291 196.725 168.148C196.461 167.986 196.227 167.752 196.024 167.447C195.821 167.142 195.719 166.705 195.719 166.136C195.719 165.75 195.8 165.313 195.963 164.825C196.146 164.337 196.451 163.819 196.878 163.27C197.325 162.701 197.924 162.091 198.676 161.44C199.449 160.79 200.425 160.109 201.604 159.397C202.844 158.645 204.002 158.035 205.08 157.568C206.177 157.08 207.163 156.704 208.037 156.44C208.932 156.175 209.714 156.003 210.385 155.921C211.056 155.82 211.584 155.769 211.971 155.769C212.885 155.769 213.566 155.891 214.013 156.135C214.461 156.358 214.796 156.765 215.02 157.354Z" fill="#718096"/>
    <g clip-path="url(#clip0_8647_1029)">
        <path d="M251.778 127.744L253.61 126.573C253.325 125.981 252.764 125.616 252.108 125.595L251.778 127.744Z" fill="#718096"/>
        <path fill-rule="evenodd" clip-rule="evenodd" d="M226.181 170.581C234.973 174.97 246.566 171.143 252.894 161.428C258.048 153.515 258.097 144.652 257.021 138.059C256.477 134.728 255.631 131.874 254.922 129.855C254.567 128.843 254.245 128.035 254.009 127.475C253.89 127.194 253.794 126.975 253.725 126.824C253.691 126.748 253.663 126.689 253.644 126.647L253.621 126.597L253.614 126.583L253.611 126.578C253.611 126.578 253.61 126.575 251.778 127.745C252.108 125.596 252.108 125.596 252.108 125.596L252.104 125.596L252.099 125.596L252.083 125.596L252.028 125.594C251.982 125.593 251.917 125.592 251.833 125.592C251.667 125.59 251.428 125.59 251.123 125.595C250.515 125.606 249.646 125.637 248.577 125.722C246.443 125.89 243.491 126.269 240.225 127.118C233.759 128.799 225.672 132.426 220.518 140.339C214.19 150.054 215.375 162.204 222.943 168.472L220.037 172.933C219.363 173.968 219.542 175.279 220.436 175.861C221.33 176.443 222.601 176.077 223.275 175.042L226.181 170.581ZM228.637 166.81C235.626 170.05 244.677 166.963 249.656 159.319C253.823 152.922 254.025 145.471 253.022 139.328C252.526 136.291 251.751 133.67 251.097 131.807C250.823 131.026 250.571 130.381 250.374 129.9C249.854 129.914 249.163 129.944 248.337 130.01C246.369 130.165 243.659 130.514 240.68 131.289C234.656 132.855 227.922 136.051 223.756 142.448C218.777 150.091 219.612 159.618 225.399 164.701L228.933 159.277L225.931 150.216C225.578 149.149 226.152 147.861 227.215 147.34C228.277 146.819 229.425 147.261 229.778 148.328L231.897 154.725L236.615 147.483L234.468 140.003C234.156 138.917 234.775 137.648 235.85 137.168C236.925 136.689 238.05 137.181 238.362 138.267L239.664 142.803L243.249 137.298C243.923 136.263 245.194 135.896 246.088 136.479C246.983 137.061 247.161 138.372 246.487 139.407L242.901 144.911L247.576 144.269C248.696 144.115 249.6 144.945 249.596 146.122C249.592 147.3 248.682 148.379 247.562 148.533L239.852 149.592L235.135 156.834L241.843 156.186C242.962 156.078 243.83 156.95 243.783 158.132C243.735 159.314 242.79 160.361 241.671 160.468L232.171 161.385L228.637 166.81Z" fill="#718096"/>
    </g>
    <g clip-path="url(#clip1_8647_1029)">
        <path d="M273.723 150.511L274.761 150.353C274.785 150.061 274.641 149.812 274.375 149.688L273.723 150.511Z" fill="#718096"/>
        <path fill-rule="evenodd" clip-rule="evenodd" d="M252.856 163.58C255.437 166.923 261.148 167.39 266.096 164.518C270.127 162.179 272.275 158.553 273.413 155.661C273.989 154.199 274.324 152.881 274.516 151.928C274.612 151.451 274.673 151.063 274.71 150.792C274.728 150.656 274.741 150.549 274.749 150.475C274.753 150.438 274.756 150.409 274.758 150.388L274.76 150.364L274.761 150.357L274.761 150.354C274.761 150.354 274.761 150.352 273.722 150.511C274.375 149.688 274.375 149.688 274.375 149.688L274.374 149.687L274.371 149.686L274.365 149.683L274.342 149.673C274.324 149.664 274.297 149.652 274.263 149.637C274.194 149.608 274.095 149.566 273.968 149.514C273.714 149.412 273.347 149.272 272.885 149.119C271.963 148.813 270.652 148.45 269.098 148.225C266.021 147.778 261.808 147.845 257.777 150.185C252.829 153.057 250.401 158.247 252.024 162.146L249.752 163.465C249.225 163.771 248.984 164.34 249.214 164.736C249.444 165.132 250.057 165.204 250.584 164.898L252.856 163.58ZM254.777 162.465C256.888 165.021 261.371 165.344 265.264 163.085C268.523 161.194 270.395 158.174 271.456 155.479C271.98 154.146 272.289 152.935 272.466 152.057C272.54 151.688 272.591 151.38 272.625 151.148C272.407 151.062 272.114 150.953 271.757 150.835C270.906 150.553 269.702 150.22 268.285 150.015C265.418 149.599 261.867 149.727 258.609 151.618C254.716 153.878 252.773 157.931 253.945 161.032L256.708 159.428L257.643 155.185C257.753 154.686 258.3 154.259 258.864 154.232C259.429 154.204 259.797 154.587 259.687 155.087L259.027 158.082L262.715 155.941L263.624 152.497C263.756 151.997 264.317 151.585 264.876 151.577C265.436 151.57 265.782 151.969 265.651 152.469L265.1 154.557L267.904 152.93C268.431 152.624 269.044 152.697 269.274 153.093C269.504 153.489 269.262 154.057 268.735 154.363L265.932 155.991L268.018 156.548C268.518 156.682 268.693 157.181 268.408 157.663C268.124 158.145 267.488 158.428 266.989 158.294L263.547 157.374L259.859 159.515L262.787 160.428C263.275 160.58 263.425 161.09 263.121 161.566C262.818 162.043 262.176 162.306 261.688 162.154L257.54 160.861L254.777 162.465Z" fill="#718096"/>
    </g>
    <path d="M274.965 187.61L276.639 188.997C277.115 188.546 277.292 187.9 277.112 187.269L274.965 187.61Z" fill="#718096"/>
    <path fill-rule="evenodd" clip-rule="evenodd" d="M226.36 176.306C224.864 186.019 232.046 195.89 243.229 198.952C252.337 201.446 260.792 198.788 266.742 195.751C269.749 194.216 272.208 192.54 273.915 191.249C274.77 190.602 275.441 190.048 275.903 189.652C276.134 189.454 276.313 189.295 276.436 189.184C276.498 189.128 276.546 189.084 276.58 189.052L276.62 189.015L276.632 189.004L276.636 189C276.636 189 276.638 188.998 274.964 187.61C277.111 187.269 277.111 187.269 277.111 187.269L277.11 187.266L277.109 187.26L277.104 187.245L277.089 187.192C277.076 187.148 277.057 187.086 277.032 187.006C276.983 186.847 276.91 186.619 276.812 186.331C276.617 185.755 276.321 184.937 275.915 183.945C275.103 181.964 273.841 179.269 272.036 176.417C268.462 170.773 262.54 164.179 253.432 161.685C242.249 158.623 231.041 163.46 227.381 172.58L222.246 171.174C221.055 170.848 219.861 171.418 219.579 172.447C219.297 173.476 220.035 174.574 221.226 174.9L226.36 176.306ZM230.701 177.495C229.749 185.139 235.451 192.817 244.249 195.225C251.612 197.241 258.769 195.16 264.314 192.33C267.055 190.931 269.314 189.393 270.888 188.202C271.549 187.702 272.086 187.266 272.483 186.931C272.312 186.44 272.072 185.792 271.758 185.025C271.01 183.198 269.85 180.724 268.203 178.124C264.874 172.864 259.775 167.428 252.412 165.412C243.614 163.003 234.796 166.705 231.721 173.768L237.965 175.477L245.678 169.854C246.586 169.192 247.988 169.346 248.809 170.199C249.629 171.051 249.558 172.279 248.65 172.941L243.204 176.912L251.541 179.194L258.009 174.867C258.948 174.238 260.346 174.44 261.13 175.318C261.915 176.196 261.79 177.417 260.85 178.045L256.928 180.669L263.265 182.404C264.456 182.73 265.193 183.829 264.911 184.858C264.629 185.887 263.435 186.457 262.244 186.131L255.908 184.396L257.946 188.652C258.435 189.671 257.921 190.785 256.798 191.141C255.676 191.497 254.37 190.959 253.882 189.939L250.521 182.921L242.185 180.639L244.848 186.829C245.292 187.861 244.728 188.954 243.587 189.27C242.447 189.585 241.162 189.004 240.718 187.972L236.946 179.204L230.701 177.495Z" fill="#718096"/>
    <rect x="13" y="270" width="281" height="5" fill="#718096"/>
    <defs>
        <clipPath id="clip0_8647_1029">
            <rect width="64.3969" height="71.5521" fill="white" transform="translate(230.283 104) rotate(33.0794)"/>
        </clipPath>
        <clipPath id="clip1_8647_1029">
            <rect width="27.6204" height="35.3101" fill="white" transform="translate(270.539 137) rotate(59.8688)"/>
        </clipPath>
    </defs>
</svg>
