<svg width="207" height="211" viewBox="0 0 207 211" fill="none" xmlns="http://www.w3.org/2000/svg">
    <path d="M100.5 18.2249L100.49 18.2304L100.474 18.2387L100.428 18.2639L100.272 18.3486C100.141 18.4203 99.956 18.5224 99.7214 18.6547C99.2513 18.919 98.5794 19.3039 97.7359 19.8065C96.0489 20.8111 93.6666 22.289 90.8221 24.2178C85.1432 28.067 77.5545 33.7554 69.9408 41.1117C54.8723 55.6708 38.8125 77.6498 38.8125 105.497C38.8125 139.687 64.3425 167.8 97.0312 171.109V186.824C97.0312 190.465 99.9275 193.418 103.5 193.418C107.072 193.418 109.969 190.465 109.969 186.824V171.109C142.658 167.801 168.188 139.688 168.188 105.497C168.188 77.6498 152.129 55.6708 137.06 41.1117C129.447 33.7554 121.857 28.067 116.18 24.2178C113.334 22.289 110.952 20.8111 109.265 19.8065C108.421 19.3039 107.75 18.919 107.28 18.6547C107.045 18.5224 106.86 18.4203 106.729 18.3486L106.573 18.2639L106.527 18.2387L106.511 18.2304L106.501 18.2249C104.622 17.2219 102.38 17.2219 100.5 18.2249ZM109.97 61.4118L109.969 80.7769L121.911 71.6659C124.771 69.4837 128.825 70.0781 130.965 72.9935C133.106 75.9089 132.523 80.0413 129.663 82.2234L109.969 97.25L109.968 122.745L127.605 110.349C130.547 108.282 134.575 109.036 136.603 112.034C138.631 115.033 137.89 119.139 134.949 121.206L107.171 140.729C104.96 142.283 102.038 142.283 99.8275 140.729L72.05 121.206C69.1088 119.139 68.3686 115.032 70.3966 112.034C72.4246 109.036 76.4529 108.282 79.3941 110.349L97.0304 122.745L97.0312 97.2491L77.3374 82.2234C74.4773 80.0412 73.8942 75.9087 76.0351 72.9934C78.1759 70.078 82.23 69.4837 85.0901 71.6659L97.0312 80.777L97.0321 61.4115C97.0321 57.7699 99.9284 54.8179 103.501 54.818C107.073 54.818 109.97 57.7702 109.97 61.4118Z" fill="#718096"/>
</svg>
