<svg width="34" height="34" viewBox="0 0 34 34" fill="none" xmlns="http://www.w3.org/2000/svg">
    <path d="M18 3C26.2843 3 33 9.75676 33 18.0917C33 25.6244 27.5147 31.8678 20.3438 33V22.4541H23.8389L24.5038 18.0917L20.3438 18.0911V15.2607C20.3438 15.2513 20.3438 15.2421 20.3439 15.2327C20.3439 15.2187 20.3442 15.2048 20.3443 15.1908C20.367 14.0222 20.9613 12.9039 22.7881 12.9039H24.6796V9.18993C24.6796 9.18993 22.963 8.89459 21.3219 8.89459C17.949 8.89459 15.7263 10.9193 15.6579 14.5908C15.6568 14.6489 15.6562 14.7073 15.6562 14.7661V18.0911H11.8477V22.4535L15.6562 22.4541V32.9994C8.48529 31.8672 3 25.6244 3 18.0917C3 9.75676 9.71572 3 18 3Z" fill="#718096"/>
</svg>
