<svg width="300" height="300" viewBox="0 0 300 300" fill="none" xmlns="http://www.w3.org/2000/svg">
    <circle cx="150" cy="150" r="150" fill="#718096" fill-opacity="0.05"/>
    <circle cx="150" cy="150" r="120" fill="#718096" fill-opacity="0.06"/>
    <path fill-rule="evenodd" clip-rule="evenodd" d="M177.87 86.8305L197.508 106.731L187.625 116.746L177.886 106.877C175.152 104.107 170.721 104.107 167.987 106.877C165.253 109.648 165.253 114.139 167.987 116.909L177.726 126.778L155.942 148.854C136.293 133.822 108.218 135.378 90.313 153.522C70.729 173.369 70.729 205.546 90.313 225.392C109.897 245.238 141.649 245.238 161.234 225.392C179.137 207.249 180.673 178.799 165.84 158.886L222.252 101.72C224.986 98.9497 224.986 94.4582 222.252 91.688C219.518 88.9176 215.086 88.9176 212.352 91.688L207.407 96.6991L187.77 76.7985C185.036 74.0281 180.604 74.0281 177.87 76.7985C175.137 79.5687 175.137 84.0602 177.87 86.8305ZM151.197 163.416L151.332 163.558L151.472 163.695C165.45 178.012 165.405 201.101 151.334 215.36C137.217 229.666 114.329 229.666 100.213 215.36C86.0958 201.054 86.0958 177.86 100.213 163.554C114.283 149.295 137.069 149.248 151.197 163.416Z" fill="#718096"/>
    <rect x="13" y="270" width="281" height="5" fill="#718096"/>
</svg>
