<svg width="100" height="119" viewBox="0 0 100 119" fill="none" xmlns="http://www.w3.org/2000/svg">
    <g clip-path="url(#clip0_8649_1071)">
        <path d="M60.6769 23.7941L62.5129 22.6209C62.2276 22.0283 61.6653 21.662 61.0079 21.6406L60.6769 23.7941Z" fill="#718096"/>
        <path fill-rule="evenodd" clip-rule="evenodd" d="M35.0253 66.7227C43.8366 71.1208 55.4536 67.2861 61.7955 57.55C66.9605 49.6206 67.0097 40.7387 65.9313 34.1315C65.3862 30.793 64.5383 27.9337 63.8282 25.91C63.4724 24.896 63.1493 24.0862 62.9126 23.5245C62.794 23.2435 62.6972 23.0243 62.6283 22.8722C62.5938 22.7961 62.5664 22.7369 62.5469 22.695L62.5237 22.6455L62.5166 22.6308L62.5143 22.6258C62.5143 22.6258 62.5127 22.6226 60.6767 23.7958C61.0077 21.6423 61.0077 21.6423 61.0077 21.6423L61.0041 21.6422L60.9987 21.642L60.9823 21.6415L60.9277 21.6403C60.8815 21.6393 60.8163 21.6383 60.7327 21.6375C60.5658 21.636 60.3261 21.6359 60.0211 21.6411C59.4117 21.6516 58.5404 21.6834 57.4691 21.7678C55.3311 21.9363 52.3729 22.3164 49.0991 23.1674C42.6199 24.8517 34.5157 28.4868 29.3507 36.4162C23.009 46.152 24.1969 58.3276 31.7808 64.6093L28.8689 69.0797C28.1935 70.1166 28.3723 71.4304 29.2682 72.014C30.1643 72.5977 31.438 72.23 32.1134 71.1931L35.0253 66.7227ZM37.4866 62.944C44.4903 66.1904 53.5615 63.0967 58.551 55.4367C62.7264 49.0265 62.9288 41.5596 61.9241 35.403C61.4272 32.3595 60.6497 29.7331 59.9949 27.8666C59.72 27.0831 59.468 26.4375 59.2699 25.9556C58.7491 25.9692 58.0567 25.9997 57.2289 26.0649C55.257 26.2204 52.5405 26.5708 49.5559 27.3466C43.5184 28.9161 36.7706 32.1194 32.5951 38.5296C27.6058 46.1893 28.4424 55.7367 34.2422 60.8307L37.7832 55.3945L34.7752 46.3139C34.421 45.2449 34.997 43.9546 36.0617 43.4322C37.1263 42.9098 38.2764 43.3531 38.6306 44.4221L40.7543 50.8333L45.4816 43.5758L43.33 36.0798C43.0175 34.9912 43.6377 33.7193 44.7154 33.2389C45.793 32.7584 46.9199 33.2514 47.2324 34.34L48.537 38.8851L52.1303 33.3688C52.8057 32.3318 54.0796 31.9643 54.9755 32.5479C55.8716 33.1316 56.0502 34.4452 55.3747 35.4822L51.7816 40.9983L56.4663 40.3548C57.5883 40.2006 58.4947 41.032 58.4907 42.2119C58.4868 43.3917 57.5741 44.4732 56.4522 44.6274L48.7262 45.6889L43.9991 52.9461L50.721 52.2975C51.8419 52.1893 52.7123 53.0622 52.6648 54.2471C52.6172 55.432 51.67 56.4805 50.549 56.5886L41.028 57.5074L37.4866 62.944Z" fill="#718096"/>
    </g>
    <g clip-path="url(#clip1_8649_1071)">
        <path d="M82.6686 46.6103L83.7092 46.4517C83.7336 46.1586 83.5891 45.9097 83.3225 45.7854L82.6686 46.6103Z" fill="#718096"/>
        <path fill-rule="evenodd" clip-rule="evenodd" d="M61.7577 59.7064C64.3439 63.0573 70.0666 63.5251 75.0259 60.6467C79.0649 58.3025 81.2179 54.6692 82.3586 51.7706C82.9349 50.306 83.271 48.9846 83.4634 48.0301C83.5598 47.5519 83.6207 47.1631 83.6577 46.8912C83.6762 46.7551 83.6888 46.6482 83.6968 46.5738C83.7008 46.5365 83.7037 46.5074 83.7057 46.4868L83.708 46.4625L83.7086 46.4552L83.7088 46.4528C83.7088 46.4528 83.709 46.4512 82.6683 46.6098C83.3222 45.7849 83.3222 45.7849 83.3222 45.7849L83.3208 45.7842L83.3186 45.7832L83.3119 45.7801L83.2896 45.77C83.2708 45.7615 83.2441 45.7496 83.2097 45.7346C83.1411 45.7047 83.042 45.6626 82.9147 45.6111C82.6603 45.5084 82.2925 45.3684 81.8294 45.2149C80.9052 44.9085 79.5911 44.5448 78.0335 44.3188C74.9509 43.8715 70.7281 43.9388 66.6891 46.2831C61.73 49.1614 59.2975 54.3624 60.924 58.2701L58.647 59.5917C58.1188 59.8983 57.8772 60.4683 58.1074 60.865C58.3377 61.2617 58.9525 61.3346 59.4806 61.0281L61.7577 59.7064ZM63.6824 58.5893C65.798 61.1504 70.2904 61.475 74.1922 59.2104C77.4573 57.3153 79.3339 54.2891 80.3969 51.5882C80.9223 50.253 81.2315 49.0395 81.409 48.1592C81.4835 47.7897 81.5344 47.4807 81.5682 47.2483C81.3497 47.1624 81.0561 47.0533 80.6983 46.9347C79.8459 46.6521 78.6388 46.3187 77.2188 46.1127C74.3463 45.6959 70.7879 45.8243 67.5228 47.7194C63.6212 49.984 61.6745 54.0457 62.8488 57.153L65.6178 55.5458L66.5548 51.2941C66.6651 50.7936 67.213 50.3657 67.7785 50.3385C68.344 50.3113 68.713 50.695 68.6027 51.1955L67.9411 54.1973L71.6378 52.0517L72.5483 48.6002C72.6806 48.099 73.2423 47.6864 73.8032 47.6786C74.364 47.6709 74.7114 48.0709 74.5792 48.5722L74.0271 50.665L76.837 49.0341C77.3652 48.7275 77.98 48.8006 78.2102 49.1972C78.4404 49.5939 78.1988 50.1639 77.6706 50.4705L74.8609 52.1012L76.9519 52.6601C77.4527 52.7939 77.6277 53.294 77.3428 53.7771C77.0579 54.2602 76.4209 54.5434 75.9201 54.4096L72.4716 53.488L68.7751 55.6335L71.7094 56.548C72.1987 56.7006 72.3489 57.2114 72.0447 57.6889C71.7405 58.1664 71.0972 58.4299 70.6079 58.2774L66.4517 56.982L63.6824 58.5893Z" fill="#718096"/>
    </g>
    <path d="M83.9134 83.7878L85.5909 85.1782C86.0682 84.7257 86.2454 84.0783 86.0652 83.4458L83.9134 83.7878Z" fill="#718096"/>
    <path fill-rule="evenodd" clip-rule="evenodd" d="M35.2055 72.4602C33.7061 82.1933 40.903 92.086 52.1099 95.1542C61.2373 97.6532 69.7106 94.9896 75.6735 91.9463C78.6864 90.4085 81.1506 88.7285 82.861 87.4347C83.7181 86.7864 84.3907 86.2316 84.8533 85.8348C85.0848 85.6361 85.264 85.477 85.3878 85.365C85.4497 85.3089 85.4978 85.2648 85.5317 85.2334L85.5717 85.1962L85.5836 85.185L85.5876 85.1812C85.5876 85.1812 85.5902 85.1787 83.9127 83.7884C86.0645 83.4464 86.0645 83.4464 86.0645 83.4464L86.0635 83.4429L86.062 83.4377L86.0575 83.422L86.042 83.3696C86.0288 83.3253 86.0099 83.2628 85.9852 83.183C85.9357 83.0236 85.8626 82.7953 85.7646 82.5065C85.5686 81.9294 85.2724 81.1093 84.8651 80.1149C84.0522 78.1302 82.7875 75.4292 80.9781 72.5712C77.3969 66.915 71.4621 60.3068 62.3347 57.8079C51.1281 54.7397 39.8958 59.5865 36.228 68.7256L31.0823 67.3168C29.8887 66.99 28.6921 67.5611 28.4098 68.5923C28.1274 69.6238 28.8662 70.7246 30.0598 71.0514L35.2055 72.4602ZM39.5551 73.651C38.6009 81.3112 44.3152 89.0056 53.1324 91.4196C60.511 93.4398 67.6835 91.3539 73.2398 88.5183C75.9865 87.1164 78.2504 85.5745 79.828 84.3813C80.4902 83.8804 81.0282 83.4435 81.4266 83.1077C81.2548 82.6159 81.0144 81.9658 80.6997 81.1974C79.9499 79.3671 78.7872 76.887 77.1376 74.2815C73.8006 69.011 68.6908 63.5626 61.3123 61.5425C52.4953 59.1285 43.6586 62.8387 40.5775 69.9164L46.835 71.6296L54.5645 65.994C55.4745 65.3304 56.879 65.4853 57.7013 66.3397C58.5237 67.1942 58.4526 68.4247 57.5427 69.0882L52.0854 73.067L60.4392 75.3542L66.921 71.0177C67.8623 70.3879 69.2629 70.5904 70.0493 71.47C70.8356 72.3496 70.71 73.5732 69.7687 74.203L65.8385 76.8324L72.1883 78.5709C73.3819 78.8977 74.1206 79.9986 73.8383 81.0299C73.5559 82.0614 72.3594 82.6323 71.1658 82.3055L64.8163 80.5671L66.8587 84.832C67.3479 85.8534 66.8327 86.9702 65.708 87.3265C64.5832 87.6829 63.2748 87.1437 62.7856 86.1223L59.417 79.0889L51.0635 76.8018L53.7325 83.0051C54.1775 84.0396 53.6118 85.1349 52.4689 85.4512C51.3261 85.7675 50.0385 85.1854 49.5935 84.1509L45.8131 75.3643L39.5551 73.651Z" fill="#718096"/>
    <defs>
        <clipPath id="clip0_8649_1071">
            <rect width="64.3969" height="71.5521" fill="white" transform="translate(39.1363) scale(1.00213) rotate(33.0794)"/>
        </clipPath>
        <clipPath id="clip1_8649_1071">
            <rect width="27.6204" height="35.3101" fill="white" transform="translate(79.4781 33.0702) scale(1.00213) rotate(59.8688)"/>
        </clipPath>
    </defs>
</svg>
