<svg width="258" height="119" viewBox="0 0 258 119" fill="none" xmlns="http://www.w3.org/2000/svg">
    <path d="M230.321 12.086L248.228 7.7626C248.228 7.7626 255.442 18.0202 257.208 25.3347C258.974 32.6491 257.235 45.0684 257.235 45.0684L239.328 49.3919L230.321 12.086Z" fill="#718096"/>
    <path d="M18.672 66.0578L0.76516 70.3812C0.76516 70.3812 -0.973975 82.8005 0.792034 90.115C2.55804 97.4295 9.77231 107.687 9.77231 107.687L27.6791 103.364L18.672 66.0578Z" fill="#718096"/>
    <path d="M22.3483 113.981L22.9776 115.609L22.9793 115.608C22.9811 115.607 22.9839 115.606 22.9876 115.605C22.9954 115.602 23.0077 115.597 23.0235 115.591C23.055 115.579 23.1024 115.561 23.1652 115.537C23.2908 115.488 23.4783 115.417 23.7247 115.322C24.218 115.133 24.948 114.854 25.8928 114.495C27.7826 113.778 30.5328 112.741 33.9702 111.462C40.8453 108.905 50.4695 105.383 61.4653 101.527C83.4725 93.8082 110.918 84.7672 132.808 79.4162L134.954 78.899C157.329 73.5788 185.797 69.0451 208.98 65.8101C220.937 64.1416 231.474 62.8211 239.021 61.9172C242.794 61.4653 245.819 61.1178 247.901 60.8833C248.941 60.766 249.747 60.6766 250.291 60.6169C250.562 60.5871 250.769 60.5644 250.908 60.5494C250.977 60.5419 251.03 60.5364 251.065 60.5326C251.082 60.5307 251.095 60.5291 251.104 60.5282C251.108 60.5277 251.112 60.528 251.114 60.5278L251.116 60.5273L250.931 58.7923L251.117 60.5271L252.796 60.3479L252.671 58.6639L252.671 58.6627C252.671 58.662 252.671 58.6609 252.671 58.6598C252.67 58.6575 252.671 58.654 252.67 58.6499C252.67 58.6411 252.668 58.6282 252.667 58.6114C252.664 58.5778 252.66 58.5282 252.655 58.4634C252.645 58.3333 252.63 58.1411 252.61 57.8941C252.57 57.4003 252.511 56.6845 252.431 55.7929C252.271 54.0094 252.031 51.5201 251.71 48.6956C251.07 43.067 250.102 36.0312 248.79 30.5968C247.478 25.1624 245.129 18.459 243.13 13.1586C242.127 10.4992 241.205 8.17496 240.533 6.51512C240.197 5.68496 239.924 5.02019 239.734 4.56247C239.639 4.33376 239.565 4.15675 239.514 4.03634C239.489 3.97613 239.47 3.92956 239.457 3.89839C239.45 3.88286 239.446 3.87078 239.442 3.86271C239.441 3.85872 239.439 3.85579 239.438 3.85367C239.438 3.8526 239.438 3.85141 239.438 3.85082L239.436 3.8501L238.766 2.26545L237.172 2.91372L237.684 4.16972C237.172 2.91378 237.172 2.91378 237.171 2.91395L237.17 2.91536C237.168 2.91616 237.164 2.917 237.16 2.9186C237.152 2.92188 237.14 2.92693 237.124 2.93348C237.091 2.94667 237.043 2.96662 236.978 2.99275C236.849 3.04521 236.655 3.12308 236.401 3.22562C235.893 3.43068 235.14 3.73315 234.166 4.12212C232.218 4.90016 229.382 6.02419 225.836 7.40728C218.744 10.1736 208.812 13.9756 197.457 18.116C175.438 26.1446 148.126 35.4239 125.784 40.9125L123.638 41.4316C101.705 46.6517 73.0868 50.7906 49.9081 53.6257C38.328 55.0421 28.1226 56.131 20.8127 56.866C17.1579 57.2335 14.2272 57.5121 12.2111 57.699C11.2031 57.7925 10.4232 57.863 9.89627 57.9101C9.6331 57.9336 9.43292 57.9511 9.29871 57.9628C9.23159 57.9687 9.18085 57.9734 9.14712 57.9763C9.13026 57.9778 9.11707 57.9788 9.10869 57.9796C9.10479 57.9799 9.10188 57.9805 9.09991 57.9807L9.09801 57.9811C9.09813 57.9872 9.10626 58.0865 9.24708 59.7187L9.09683 57.9804L7.47877 58.1207L7.50288 59.7447L7.50216 59.7459C7.50217 59.7466 7.50283 59.7476 7.50284 59.7488C7.50288 59.7512 7.50244 59.7553 7.50252 59.7599C7.50266 59.7691 7.50284 59.7825 7.50314 59.8C7.50375 59.8353 7.50507 59.8873 7.50639 59.955C7.50905 60.0907 7.51328 60.2903 7.51963 60.547C7.53232 61.0605 7.55344 61.8047 7.58734 62.7306C7.65515 64.5821 7.77391 67.1652 7.97855 70.0935C8.38583 75.9218 9.13932 83.2259 10.5376 88.8506L10.802 89.8666C12.1903 95.0117 14.5858 101.022 16.6601 105.805C17.7718 108.369 18.8017 110.603 19.5539 112.198C19.9301 112.995 20.2367 113.634 20.4502 114.074C20.5569 114.293 20.6409 114.463 20.6979 114.579C20.7263 114.637 20.748 114.681 20.7629 114.711C20.7704 114.726 20.7765 114.738 20.7804 114.746C20.7823 114.75 20.7836 114.753 20.7846 114.755C20.7851 114.756 20.785 114.757 20.7853 114.758L20.7863 114.758L22.3483 113.981ZM22.3483 113.981L20.7865 114.759L21.494 116.182L22.9766 115.609L22.3483 113.981Z" fill="#718096" stroke="white" stroke-width="3.48604"/>
    <path d="M137.749 64.2278L147.299 103.785L136.597 86.2897L136.032 85.3663L135.952 86.4454L134.412 106.897L124.861 67.3393L137.749 64.2278Z" fill="#718096" stroke="white" stroke-width="0.697209"/>
    <path d="M138.372 57.8012L163.541 89.779L146.521 78.3356L145.622 77.7316L145.999 78.746L153.123 97.9786L127.954 66.0008L138.372 57.8012Z" fill="#718096" stroke="white" stroke-width="0.697209"/>
    <circle cx="129.749" cy="59.3389" r="10.1192" transform="rotate(-13.5738 129.749 59.3389)" fill="#718096" stroke="white" stroke-width="3.48604"/>
</svg>
