<svg width="300" height="300" viewBox="0 0 300 300" fill="none" xmlns="http://www.w3.org/2000/svg">
    <circle cx="150" cy="150" r="150" fill="#718096" fill-opacity="0.05"/>
    <circle cx="150" cy="150" r="120" fill="#718096" fill-opacity="0.06"/>
    <rect x="13" y="270" width="281" height="5" fill="#718096"/>
    <path d="M147.5 63.2249L147.49 63.2304L147.474 63.2387L147.428 63.2639L147.272 63.3486C147.141 63.4203 146.956 63.5224 146.721 63.6547C146.251 63.919 145.579 64.3039 144.736 64.8065C143.049 65.8111 140.667 67.289 137.822 69.2178C132.143 73.067 124.554 78.7554 116.941 86.1117C101.872 100.671 85.8125 122.65 85.8125 150.497C85.8125 184.687 111.343 212.8 144.031 216.109V231.824C144.031 235.465 146.928 238.418 150.5 238.418C154.072 238.418 156.969 235.465 156.969 231.824V216.109C189.658 212.801 215.188 184.688 215.188 150.497C215.188 122.65 199.129 100.671 184.06 86.1117C176.447 78.7554 168.857 73.067 163.18 69.2178C160.334 67.289 157.952 65.8111 156.265 64.8065C155.421 64.3039 154.75 63.919 154.28 63.6547C154.045 63.5224 153.86 63.4203 153.729 63.3486L153.573 63.2639L153.527 63.2387L153.511 63.2304L153.501 63.2249C151.622 62.2219 149.38 62.2219 147.5 63.2249ZM156.97 106.412L156.969 125.777L168.911 116.666C171.771 114.484 175.825 115.078 177.965 117.994C180.106 120.909 179.523 125.041 176.663 127.223L156.969 142.25L156.968 167.745L174.605 155.349C177.547 153.282 181.575 154.036 183.603 157.034C185.631 160.033 184.89 164.139 181.949 166.206L154.171 185.729C151.96 187.283 149.038 187.283 146.827 185.729L119.05 166.206C116.109 164.139 115.369 160.032 117.397 157.034C119.425 154.036 123.453 153.282 126.394 155.349L144.03 167.745L144.031 142.249L124.337 127.223C121.477 125.041 120.894 120.909 123.035 117.993C125.176 115.078 129.23 114.484 132.09 116.666L144.031 125.777L144.032 106.412C144.032 102.77 146.928 99.8179 150.501 99.818C154.073 99.818 156.97 102.77 156.97 106.412Z" fill="#718096"/>
</svg>
