<svg width="300" height="300" viewBox="0 0 300 300" fill="none" xmlns="http://www.w3.org/2000/svg">
<circle cx="150" cy="150" r="150" fill="#718096" fill-opacity="0.05"/>
<circle cx="150" cy="150" r="120" fill="#718096" fill-opacity="0.06"/>
<path d="M222.432 128.473V149.104L240.548 142.06L222.432 128.473Z" fill="white" stroke="#718096" stroke-width="2.4219"/>
<path d="M75.9064 126.949V149.093L58.795 142.314L75.9064 126.949Z" fill="white" stroke="#718096" stroke-width="2.4219"/>
<line x1="61.3752" y1="139.977" x2="77.1176" y2="139.977" stroke="#718096" stroke-width="2.4219"/>
<line x1="221.221" y1="141.187" x2="238.174" y2="141.187" stroke="#718096" stroke-width="2.4219"/>
<mask id="path-7-inside-1_8645_964" fill="white">
<rect x="74.6957" y="66.1094" width="148.947" height="139.259" rx="2.4219"/>
</mask>
<rect x="74.6957" y="66.1094" width="148.947" height="139.259" rx="2.4219" fill="white" stroke="#718096" stroke-width="7.26571" mask="url(#path-7-inside-1_8645_964)"/>
<path d="M140.888 174.002C141.298 174.164 141.395 174.688 141.098 174.988L141.033 175.046L80.2971 221.591C80.1915 221.672 80.062 221.716 79.929 221.716H58.9534C58.619 221.716 58.3479 221.445 58.3479 221.11V142.325C58.3479 141.925 58.7261 141.642 59.1008 141.737L59.176 141.762L140.888 174.002Z" fill="white" stroke="#718096" stroke-width="3.63286"/>
<path d="M159.267 174.002C158.857 174.164 158.76 174.688 159.057 174.988L159.121 175.046L219.858 221.591C219.963 221.672 220.093 221.716 220.226 221.716H241.202C241.536 221.716 241.807 221.445 241.807 221.11V142.325C241.807 141.925 241.429 141.642 241.054 141.737L240.979 141.762L159.267 174.002Z" fill="white" stroke="#718096" stroke-width="3.63286"/>
<path d="M237.6 221.716H61.9502L149.774 156.767L237.6 221.716Z" fill="white" stroke="#718096" stroke-width="3.63286"/>
<path d="M149.734 134.622C146.399 134.622 143.26 134.009 140.317 132.782C137.423 131.605 134.897 129.937 132.738 127.779C130.58 125.621 128.888 123.095 127.662 120.201C126.435 117.258 125.822 114.07 125.822 110.636C125.822 107.203 126.435 104.039 127.662 101.145C128.937 98.2018 130.678 95.6512 132.886 93.493C135.093 91.2857 137.668 89.5689 140.611 88.3427C143.603 87.1164 146.791 86.5033 150.176 86.5033C154.689 86.5033 158.662 87.5333 162.095 89.5935C165.578 91.6536 168.3 94.474 170.262 98.0547C172.273 101.635 173.279 105.756 173.279 110.415C173.279 112.525 173.058 114.438 172.617 116.154C172.224 117.822 171.562 119.392 170.63 120.863L164.965 120.569C165.651 119.588 166.191 118.607 166.583 117.626C167.025 116.596 167.344 115.468 167.54 114.241C167.736 113.015 167.834 111.617 167.834 110.048C167.834 106.173 167.123 102.886 165.7 100.188C164.327 97.4415 162.316 95.3569 159.667 93.9344C157.068 92.4629 153.928 91.7272 150.25 91.7272C146.522 91.7272 143.235 92.512 140.39 94.0816C137.594 95.6512 135.412 97.8585 133.842 100.703C132.322 103.499 131.561 106.835 131.561 110.71C131.561 114.536 132.297 117.847 133.769 120.642C135.289 123.438 137.423 125.621 140.17 127.191C142.916 128.711 146.056 129.472 149.587 129.472C152.187 129.472 154.517 129.104 156.577 128.368C158.637 127.681 160.452 126.627 162.022 125.204L165.7 128.956C163.542 130.82 161.114 132.218 158.416 133.15C155.719 134.131 152.825 134.622 149.734 134.622ZM148.41 121.378C146.497 121.378 144.756 120.912 143.186 119.98C141.666 118.999 140.415 117.699 139.434 116.081C138.502 114.462 138.036 112.647 138.036 110.636C138.036 108.625 138.502 106.81 139.434 105.192C140.415 103.524 141.666 102.224 143.186 101.292C144.756 100.311 146.497 99.8205 148.41 99.8205C150.765 99.8205 152.678 100.409 154.149 101.586C155.67 102.714 156.43 104.382 156.43 106.589V114.609C156.43 116.767 155.694 118.435 154.223 119.612C152.751 120.79 150.814 121.378 148.41 121.378ZM148.704 116.743C150.47 116.743 151.868 116.179 152.898 115.051C153.977 113.873 154.517 112.377 154.517 110.563C154.517 108.699 153.977 107.203 152.898 106.074C151.868 104.946 150.47 104.382 148.704 104.382C147.086 104.382 145.712 104.971 144.584 106.148C143.505 107.276 142.966 108.748 142.966 110.563C142.966 112.377 143.505 113.873 144.584 115.051C145.663 116.179 147.037 116.743 148.704 116.743ZM156.945 120.863V116.522H170.63V120.863H156.945ZM154.885 120.863V115.419L155.621 110.268L154.885 105.339V100.262H159.667V120.863H154.885Z" fill="#718096"/>
<rect x="13" y="270" width="281" height="5" fill="#718096"/>
</svg>
